<?xml version="1.0" standalone="no"?>
<!DOCTYPE svg PUBLIC "-//W3C//DTD SVG 20010904//EN"
 "http://www.w3.org/TR/2001/REC-SVG-20010904/DTD/svg10.dtd">
<svg version="1.0" xmlns="http://www.w3.org/2000/svg"
 width="1110.000000pt" height="696.000000pt" viewBox="0 0 1110.000000 696.000000"
 preserveAspectRatio="xMidYMid meet">

<g transform="translate(0.000000,696.000000) scale(0.100000,-0.100000)"
fill="#000000" stroke="none">
<path d="M4510 5080 c-156 -20 -283 -83 -400 -200 -130 -130 -194 -285 -194
-470 0 -117 18 -198 65 -296 135 -285 468 -442 772 -365 233 60 404 218 483
446 25 70 28 95 28 205 1 143 -19 227 -81 340 -43 77 -178 217 -243 251 -152
79 -283 107 -430 89z m156 -241 c32 -6 87 -24 121 -41 330 -161 321 -634 -15
-791 -92 -43 -215 -50 -311 -17 -167 56 -274 182 -304 355 -37 215 123 443
343 491 71 16 94 16 166 3z"/>
<path d="M5293 4940 c-33 -13 -29 -50 11 -123 76 -136 107 -256 107 -414 0
-134 -26 -237 -97 -380 -64 -130 -63 -148 9 -158 23 -3 344 -5 712 -3 l670 3
81 27 c102 35 184 88 257 167 94 102 137 211 137 346 0 200 -118 384 -304 476
-141 69 -140 69 -891 68 -375 0 -680 -4 -692 -9z m543 -431 c8 -16 22 -29 32
-29 26 0 62 -29 62 -49 0 -10 -9 -30 -20 -44 -11 -14 -20 -39 -20 -55 0 -17
-3 -37 -6 -46 -7 -18 -46 -21 -75 -5 -14 7 -29 7 -55 -3 -48 -17 -69 -3 -69
48 0 26 -8 49 -22 68 -13 16 -23 33 -23 37 0 18 41 49 65 49 14 0 25 5 25 10
0 6 11 22 24 35 30 30 61 24 82 -16z m478 0 c9 -16 25 -29 34 -29 27 0 62 -29
62 -51 0 -11 -10 -30 -22 -42 -16 -16 -23 -35 -23 -61 0 -50 -21 -66 -67 -48
-25 9 -39 9 -65 0 -48 -17 -68 -2 -68 50 0 28 -7 48 -22 64 -13 14 -23 30 -23
36 0 21 39 52 65 52 14 0 25 5 25 10 0 6 11 22 24 35 29 29 56 24 80 -16z
m478 -5 c7 -14 20 -24 32 -24 29 0 66 -27 66 -47 0 -9 -10 -27 -22 -41 -16
-16 -23 -36 -23 -64 0 -52 -20 -67 -68 -50 -26 9 -40 9 -65 0 -46 -18 -67 -2
-68 51 0 29 -7 47 -22 62 -12 11 -22 28 -22 39 0 23 36 50 67 50 13 0 23 5 23
10 0 6 11 22 25 36 21 21 28 23 45 14 12 -6 26 -22 32 -36z"/>
<path d="M4002 3253 l-143 -4 -10 -26 c-6 -16 -8 -256 -7 -650 2 -503 6 -625
16 -632 18 -11 337 -20 444 -12 48 3 92 11 99 18 7 7 11 45 10 100 -1 81 -3
90 -26 111 -24 21 -35 22 -166 22 -107 0 -141 3 -145 13 -2 8 -1 85 3 173 l8
159 145 3 c122 2 147 5 158 19 18 24 16 177 -2 196 -12 12 -41 13 -154 9 -112
-4 -141 -2 -148 9 -10 15 -9 206 0 244 6 22 9 23 160 26 85 2 158 7 162 12 8
8 6 196 -2 209 -5 8 -70 8 -402 1z"/>
<path d="M5751 3244 c-148 -40 -300 -161 -359 -287 -62 -130 -76 -204 -76
-382 0 -244 43 -388 148 -498 104 -108 236 -160 412 -161 146 -1 146 -1 142
118 l-3 91 -102 -3 c-141 -5 -195 12 -257 78 -82 88 -126 222 -126 383 1 236
101 407 260 442 19 5 79 7 133 6 l97 -2 0 95 c0 90 -1 95 -26 115 -22 18 -40
21 -108 20 -44 0 -105 -7 -135 -15z"/>
<path d="M8225 3249 c-22 -6 -78 -28 -123 -50 -155 -75 -259 -211 -308 -404
-25 -97 -25 -328 0 -445 44 -210 159 -343 351 -407 66 -21 99 -26 191 -27 145
-1 144 -2 144 121 l0 95 -94 -7 c-182 -13 -261 27 -331 168 -50 102 -68 198
-62 327 8 144 42 242 114 321 66 73 153 100 296 91 l77 -4 0 93 c0 100 -3 110
-37 128 -25 13 -161 13 -218 0z"/>
<path d="M1810 3227 c-130 -44 -233 -134 -289 -252 -96 -201 -92 -564 8 -790
52 -117 151 -206 280 -251 212 -75 455 37 555 256 53 116 71 219 70 410 0 196
-12 266 -64 373 -106 216 -349 326 -560 254z m236 -193 c23 -13 54 -38 68 -55
127 -151 154 -501 55 -706 -35 -73 -69 -104 -144 -132 -70 -26 -90 -26 -162 0
-105 39 -158 121 -189 289 -40 223 19 484 131 575 81 67 159 76 241 29z"/>
<path d="M2774 3236 c-18 -14 -19 -34 -22 -648 -1 -348 0 -643 3 -655 5 -22
10 -23 115 -23 98 0 110 2 110 18 1 9 1 181 0 382 -1 268 2 362 10 354 6 -6
71 -153 144 -325 74 -173 145 -340 159 -371 l26 -58 94 0 c77 0 96 3 101 16 8
21 8 1272 0 1302 -6 22 -9 23 -113 20 l-106 -3 4 -387 c2 -214 1 -388 -3 -388
-9 0 -66 130 -201 463 l-128 317 -87 0 c-59 0 -92 -5 -106 -14z"/>
<path d="M6340 3224 c-7 -16 -7 -254 -3 -667 l8 -642 260 -2 c143 -2 266 1
274 6 10 6 13 33 12 106 -1 54 -4 102 -7 107 -3 5 -70 8 -149 7 -78 -1 -147 1
-154 5 -8 5 -11 154 -11 537 0 347 -4 537 -10 550 -10 17 -22 19 -111 19 -98
0 -100 0 -109 -26z"/>
<path d="M7216 3234 c-9 -25 -7 -1297 3 -1312 13 -20 218 -13 231 8 12 19 1
1278 -12 1303 -7 14 -24 17 -112 17 -86 0 -105 -3 -110 -16z"/>
<path d="M8810 3231 c-7 -14 -9 -226 -8 -668 l3 -648 111 -3 112 -3 7 118 c4
65 5 201 1 301 -5 148 -4 183 6 180 12 -4 43 -56 245 -413 47 -82 92 -158 101
-167 13 -15 33 -18 134 -18 113 0 118 1 118 21 0 11 -18 52 -40 90 -62 104
-256 455 -297 535 l-37 71 41 84 c22 46 89 167 149 269 60 102 115 198 122
213 24 56 23 57 -107 57 -139 0 -122 12 -206 -145 -104 -196 -217 -395 -226
-401 -7 -4 -9 92 -7 268 l3 273 -107 3 c-98 2 -108 1 -118 -17z"/>
</g>
</svg>
